<?xml version="1.0" encoding="UTF-8"?>
<svg width="52px" height="52px" viewBox="0 0 52 52" version="1.1" xmlns="http://www.w3.org/2000/svg" xmlns:xlink="http://www.w3.org/1999/xlink">
    <!-- Generator: Sketch 51.3 (57544) - http://www.bohemiancoding.com/sketch -->
    <title>扩展--事件</title>
    <desc>Created with Sketch.</desc>
    <defs></defs>
    <g id="Page-1" stroke="none" stroke-width="1" fill="none" fill-rule="evenodd">
        <g id="Apple-TV" transform="translate(-719.000000, -928.000000)" fill-rule="nonzero">
            <g id="扩展--事件" transform="translate(719.000000, 928.000000)">
                <path d="M8.23021583,37 C3.64748201,37 0,33.130102 0,28.3163265 C0,23.502551 3.74100719,19.6326531 8.23021583,19.6326531 C12.7194245,19.6326531 16.4604317,23.502551 16.4604317,28.3163265 C16.4604317,33.130102 12.8129496,37 8.23021583,37 Z M17.0215827,11.1377551 C14.1223022,11.1377551 11.6906475,8.68367347 11.6906475,5.56887755 C11.6906475,2.45408163 14.028777,0 17.0215827,0 C20.0143885,0 22.352518,2.45408163 22.352518,5.56887755 C22.352518,8.68367347 20.0143885,11.1377551 17.0215827,11.1377551 Z M44.3309353,16.1403061 C40.1223022,16.1403061 36.6618705,12.5535714 36.6618705,8.11734694 C36.6618705,3.68112245 40.1223022,0 44.3309353,0 C48.5395683,0 52,3.58673469 52,8.02295918 C52,12.4591837 48.5395683,16.1403061 44.3309353,16.1403061 Z" id="Shape" fill="#50E3C2"></path>
                <path d="M14.8082085,23.068399 L37.6203009,9.86387353 L38.5478102,11.4744537 L15.7357178,24.6789792 L14.8082085,23.068399 Z M15.7765282,29.5479155 L30.7001536,37.4548225 L29.8338599,39.098879 L14.9102345,31.1919719 L15.7765282,29.5479155 Z M10,20.0285685 L14.4659575,9 L16.1846323,9.70021181 L11.7186748,20.7287803 L10,20.0285685 Z M34.858178,37.4678411 L42,37.4678411 L42,39.3276334 L34.858178,39.3276334 L34.858178,37.4678411 Z M34.858178,43.1402077 L42,43.1402077 L42,45 L34.858178,45 L34.858178,43.1402077 Z" id="Shape" fill="#000000"></path>
                <polygon id="Shape" fill="#FBE139" points="30 52 30 30 48 30 48 52"></polygon>
            </g>
        </g>
    </g>
</svg>